<?xml version="1.0" standalone="no"?>
<!DOCTYPE svg PUBLIC "-//W3C//DTD SVG 20010904//EN"
 "http://www.w3.org/TR/2001/REC-SVG-20010904/DTD/svg10.dtd">
<svg version="1.0" xmlns="http://www.w3.org/2000/svg"
 width="1000.000000pt" height="1000.000000pt" viewBox="0 0 1000.000000 1000.000000"
 preserveAspectRatio="xMidYMid meet">
<metadata>
Created by potrace 1.16, written by Peter Selinger 2001-2019
</metadata>
<g transform="translate(0.000000,1000.000000) scale(0.100000,-0.100000)"
fill="#000000" stroke="none">
<path d="M3820 9384 c-864 -94 -1664 -523 -2229 -1194 -432 -514 -703 -1148
-776 -1817 -20 -187 -20 -559 0 -746 115 -1058 719 -1998 1640 -2552 384 -231
818 -383 1293 -451 148 -21 596 -30 760 -15 357 34 702 121 1029 261 128 55
335 161 420 216 29 19 57 34 61 34 4 0 558 -551 1232 -1225 l1225 -1225 427
427 428 428 -1210 1210 -1209 1210 78 112 c332 474 531 1003 596 1583 20 178
19 538 0 728 -70 666 -342 1307 -776 1822 -113 134 -315 334 -445 442 -506
417 -1145 685 -1796 753 -182 19 -572 18 -748 -1z m695 -810 c438 -50 891
-232 1247 -503 535 -405 884 -983 1000 -1656 31 -177 33 -628 5 -800 -114
-689 -462 -1274 -1002 -1684 -318 -242 -713 -415 -1105 -485 -324 -57 -698
-50 -1020 20 -262 58 -590 191 -813 332 -634 398 -1059 1036 -1188 1783 -31
177 -38 544 -15 730 110 880 646 1633 1438 2019 454 222 937 303 1453 244z"/>
</g>
</svg>
